# xmcd
#
# Track frame offsets:
#	151
#	18263
#	35599
#	51461
#	68056
#	88889
#	109222
#	129283
#	145336
#	165925
#	182012
#	196839
#
# Disc length: 2854 seconds
#
# Revision: 0
# Processed by: cddbd v1.5.1PL0 Copyright (c) Steve Scherf et al.
# Submitted via: dBpowerAMP V4.0
#
DISCID=a10b240c
DTITLE=Mon-Heli - Fy ngalw'n ol
DYEAR=2004
DGENRE=Country
TTITLE0=Fy Ngalw'n ol
TTITLE1=Haf Yn Fy Nghalon
TTITLE2=Tawel Yw'r Nos
TTITLE3=Dawnsio Llinell
TTITLE4=Dweud Ffarwel
TTITLE5=Canu Carioci
TTITLE6=Cwlwm
TTITLE7=Eirlys Yn Yr Eira
TTITLE8=Yma'n Fy Nghalon
TTITLE9=Tros Fy Ysgwydd
TTITLE10=Yn Ol I Ynys Mon
TTITLE11=Nadolig Bob Dydd
EXTD=Welsh country Music
EXTT0=
EXTT1=
EXTT2=
EXTT3=
EXTT4=
EXTT5=
EXTT6=
EXTT7=
EXTT8=
EXTT9=
EXTT10=
EXTT11=
PLAYORDER=
